<svg width="24" height="24" viewBox="0 0 24 24" fill="none" xmlns="http://www.w3.org/2000/svg">
<path d="M15.332 8.668C16.1983 8.64201 17.0203 8.27961 17.6239 7.65767C18.2274 7.03573 18.565 6.20316 18.565 5.3365C18.565 4.46985 18.2274 3.63728 17.6239 3.01534C17.0203 2.3934 16.1983 2.031 15.332 2.005H8.668C7.80174 2.031 6.97966 2.3934 6.37611 3.01534C5.77255 3.63728 5.43498 4.46985 5.43498 5.3365C5.43498 6.20316 5.77255 7.03573 6.37611 7.65767C6.97966 8.27961 7.80174 8.64201 8.668 8.668C7.79416 8.68314 6.96123 9.0409 6.34862 9.66422C5.73601 10.2875 5.39273 11.1265 5.39273 12.0005C5.39273 12.8745 5.73601 13.7135 6.34862 14.3368C6.96123 14.9601 7.79416 15.3179 8.668 15.333C7.79843 15.3543 6.97165 15.7147 6.36416 16.3373C5.75668 16.9598 5.41664 17.7952 5.41664 18.665C5.41664 19.5348 5.75668 20.3702 6.36416 20.9927C6.97165 21.6153 7.79843 21.9757 8.668 21.997C9.55171 21.9965 10.3991 21.6451 11.0238 21.0201C11.6486 20.3952 11.9997 19.5477 12 18.664V8.668H15.332Z" fill="white"/>
<path d="M15.332 15.332C17.1722 15.332 18.664 13.8402 18.664 12C18.664 10.1598 17.1722 8.66803 15.332 8.66803C13.4918 8.66803 12 10.1598 12 12C12 13.8402 13.4918 15.332 15.332 15.332Z" fill="white"/>
</svg>
