<svg width="16" height="16" viewBox="0 0 16 16" fill="none" xmlns="http://www.w3.org/2000/svg">
<path d="M8.44444 1.77778C8.32657 1.77778 8.21352 1.8246 8.13017 1.90795C8.04682 1.9913 8 2.10435 8 2.22222C8 2.3401 8.04682 2.45314 8.13017 2.53649C8.21352 2.61984 8.32657 2.66667 8.44444 2.66667H12.7067L8.59556 6.77778C8.54903 6.81762 8.51124 6.86665 8.48457 6.92179C8.45789 6.97693 8.4429 7.03699 8.44053 7.0982C8.43817 7.15941 8.44848 7.22044 8.47083 7.27748C8.49317 7.33451 8.52706 7.38631 8.57038 7.42962C8.61369 7.47294 8.66549 7.50683 8.72252 7.52917C8.77956 7.55152 8.84059 7.56183 8.9018 7.55947C8.96301 7.5571 9.02307 7.54211 9.07821 7.51543C9.13335 7.48876 9.18238 7.45097 9.22222 7.40445L13.3333 3.29333V7.55556C13.3333 7.67343 13.3802 7.78648 13.4635 7.86983C13.5469 7.95318 13.6599 8 13.7778 8C13.8957 8 14.0087 7.95318 14.092 7.86983C14.1754 7.78648 14.2222 7.67343 14.2222 7.55556V1.77778H8.44444Z" fill="#393E46"/>
<path d="M1.77778 8.44444C1.77778 8.32657 1.8246 8.21352 1.90795 8.13017C1.9913 8.04682 2.10435 8 2.22222 8C2.3401 8 2.45314 8.04682 2.53649 8.13017C2.61984 8.21352 2.66667 8.32657 2.66667 8.44444V12.7067L6.77778 8.59556C6.81762 8.54903 6.86665 8.51124 6.92179 8.48457C6.97693 8.45789 7.03699 8.4429 7.0982 8.44053C7.15941 8.43817 7.22044 8.44848 7.27748 8.47083C7.33451 8.49317 7.38631 8.52706 7.42962 8.57038C7.47293 8.61369 7.50683 8.66549 7.52917 8.72252C7.55152 8.77956 7.56183 8.84059 7.55946 8.9018C7.5571 8.96301 7.54211 9.02307 7.51543 9.07821C7.48876 9.13335 7.45097 9.18238 7.40444 9.22222L3.29333 13.3333H7.55555C7.67343 13.3333 7.78648 13.3802 7.86982 13.4635C7.95317 13.5469 8 13.6599 8 13.7778C8 13.8957 7.95317 14.0087 7.86982 14.092C7.78648 14.1754 7.67343 14.2222 7.55555 14.2222H1.77778V8.44444Z" fill="#393E46"/>
</svg>
