<svg width="27" height="24" viewBox="0 0 27 24" fill="none" xmlns="http://www.w3.org/2000/svg">
<path d="M24.75 3H2.25C1.00734 3 0 4.00734 0 5.25V18.75C0 19.9927 1.00734 21 2.25 21H24.75C25.9927 21 27 19.9927 27 18.75V5.25C27 4.00734 25.9927 3 24.75 3ZM25.125 18.75C25.125 18.9568 24.9568 19.125 24.75 19.125H2.25C2.04323 19.125 1.875 18.9568 1.875 18.75V5.25C1.875 5.04323 2.04323 4.875 2.25 4.875H24.75C24.9568 4.875 25.125 5.04323 25.125 5.25V18.75ZM7.96875 12.6562V11.3438C7.96875 11.0331 7.71689 10.7812 7.40625 10.7812H6.09375C5.78311 10.7812 5.53125 11.0331 5.53125 11.3438V12.6562C5.53125 12.9669 5.78311 13.2188 6.09375 13.2188H7.40625C7.71689 13.2188 7.96875 12.9669 7.96875 12.6562ZM12.4688 12.6562V11.3438C12.4688 11.0331 12.2169 10.7812 11.9062 10.7812H10.5938C10.2831 10.7812 10.0312 11.0331 10.0312 11.3438V12.6562C10.0312 12.9669 10.2831 13.2188 10.5938 13.2188H11.9062C12.2169 13.2188 12.4688 12.9669 12.4688 12.6562ZM16.9688 12.6562V11.3438C16.9688 11.0331 16.7169 10.7812 16.4062 10.7812H15.0938C14.7831 10.7812 14.5312 11.0331 14.5312 11.3438V12.6562C14.5312 12.9669 14.7831 13.2188 15.0938 13.2188H16.4062C16.7169 13.2188 16.9688 12.9669 16.9688 12.6562ZM21.4688 12.6562V11.3438C21.4688 11.0331 21.2169 10.7812 20.9062 10.7812H19.5938C19.2831 10.7812 19.0312 11.0331 19.0312 11.3438V12.6562C19.0312 12.9669 19.2831 13.2188 19.5938 13.2188H20.9062C21.2169 13.2188 21.4688 12.9669 21.4688 12.6562ZM5.71875 16.5V15.1875C5.71875 14.8769 5.46689 14.625 5.15625 14.625H3.84375C3.53311 14.625 3.28125 14.8769 3.28125 15.1875V16.5C3.28125 16.8106 3.53311 17.0625 3.84375 17.0625H5.15625C5.46689 17.0625 5.71875 16.8106 5.71875 16.5ZM23.7188 16.5V15.1875C23.7188 14.8769 23.4669 14.625 23.1562 14.625H21.8438C21.5331 14.625 21.2812 14.8769 21.2812 15.1875V16.5C21.2812 16.8106 21.5331 17.0625 21.8438 17.0625H23.1562C23.4669 17.0625 23.7188 16.8106 23.7188 16.5ZM5.71875 8.8125V7.5C5.71875 7.18936 5.46689 6.9375 5.15625 6.9375H3.84375C3.53311 6.9375 3.28125 7.18936 3.28125 7.5V8.8125C3.28125 9.12314 3.53311 9.375 3.84375 9.375H5.15625C5.46689 9.375 5.71875 9.12314 5.71875 8.8125ZM10.2188 8.8125V7.5C10.2188 7.18936 9.96689 6.9375 9.65625 6.9375H8.34375C8.03311 6.9375 7.78125 7.18936 7.78125 7.5V8.8125C7.78125 9.12314 8.03311 9.375 8.34375 9.375H9.65625C9.96689 9.375 10.2188 9.12314 10.2188 8.8125ZM14.7188 8.8125V7.5C14.7188 7.18936 14.4669 6.9375 14.1562 6.9375H12.8438C12.5331 6.9375 12.2812 7.18936 12.2812 7.5V8.8125C12.2812 9.12314 12.5331 9.375 12.8438 9.375H14.1562C14.4669 9.375 14.7188 9.12314 14.7188 8.8125ZM19.2188 8.8125V7.5C19.2188 7.18936 18.9669 6.9375 18.6562 6.9375H17.3438C17.0331 6.9375 16.7812 7.18936 16.7812 7.5V8.8125C16.7812 9.12314 17.0331 9.375 17.3438 9.375H18.6562C18.9669 9.375 19.2188 9.12314 19.2188 8.8125ZM23.7188 8.8125V7.5C23.7188 7.18936 23.4669 6.9375 23.1562 6.9375H21.8438C21.5331 6.9375 21.2812 7.18936 21.2812 7.5V8.8125C21.2812 9.12314 21.5331 9.375 21.8438 9.375H23.1562C23.4669 9.375 23.7188 9.12314 23.7188 8.8125ZM19.125 16.2188V15.4688C19.125 15.1581 18.8731 14.9062 18.5625 14.9062H8.4375C8.12686 14.9062 7.875 15.1581 7.875 15.4688V16.2188C7.875 16.5294 8.12686 16.7812 8.4375 16.7812H18.5625C18.8731 16.7812 19.125 16.5294 19.125 16.2188Z" fill="#393E46"/>
</svg>
