<svg width="24" height="24" viewBox="0 0 24 24" fill="none" xmlns="http://www.w3.org/2000/svg">
<path fill-rule="evenodd" clip-rule="evenodd" d="M9 13H19C19.2652 13 19.5196 13.1054 19.7071 13.2929C19.8946 13.4804 20 13.7348 20 14C20 14.2652 19.8946 14.5196 19.7071 14.7071C19.5196 14.8946 19.2652 15 19 15H9C8.73478 15 8.48043 14.8946 8.29289 14.7071C8.10536 14.5196 8 14.2652 8 14C8 13.7348 8.10536 13.4804 8.29289 13.2929C8.48043 13.1054 8.73478 13 9 13ZM9 17H19C19.2652 17 19.5196 17.1054 19.7071 17.2929C19.8946 17.4804 20 17.7348 20 18C20 18.2652 19.8946 18.5196 19.7071 18.7071C19.5196 18.8946 19.2652 19 19 19H9C8.73478 19 8.48043 18.8946 8.29289 18.7071C8.10536 18.5196 8 18.2652 8 18C8 17.7348 8.10536 17.4804 8.29289 17.2929C8.48043 17.1054 8.73478 17 9 17ZM15 9H19C19.2652 9 19.5196 9.10536 19.7071 9.29289C19.8946 9.48043 20 9.73478 20 10C20 10.2652 19.8946 10.5196 19.7071 10.7071C19.5196 10.8946 19.2652 11 19 11H15C14.7348 11 14.4804 10.8946 14.2929 10.7071C14.1054 10.5196 14 10.2652 14 10C14 9.73478 14.1054 9.48043 14.2929 9.29289C14.4804 9.10536 14.7348 9 15 9ZM7.743 10.914L4 7.172L5.414 5.757L7.743 8.086L12.828 3L14.243 4.414L7.743 10.914Z" fill="white"/>
</svg>
